<svg width="24" height="9" viewBox="0 0 24 9" fill="none" xmlns="http://www.w3.org/2000/svg">
<path d="M2.37305 1.62891C2.37305 1.62891 2.29102 3.875 2.12695 8.36719L2.94141 8.50195V9H0.509766V8.50195L1.3418 8.36719L1.76367 0.796875L0.9375 0.662109V0.164062H2.94141L6.08789 7.02539L9.25781 0.164062H11.0918V0.662109L10.2129 0.796875C10.2754 2.07031 10.3418 3.33789 10.4121 4.59961C10.4824 5.86133 10.5469 7.11719 10.6055 8.36719L11.5078 8.50195V9H8.64258V8.50195L9.52148 8.36719L9.25781 1.7168L5.84766 9L2.37305 1.62891ZM14.3965 1.62891C14.3965 1.62891 14.3145 3.875 14.1504 8.36719L14.9648 8.50195V9H12.5332V8.50195L13.3652 8.36719L13.7871 0.796875L12.9609 0.662109V0.164062H14.9648L18.1113 7.02539L21.2812 0.164062H23.1152V0.662109L22.2363 0.796875C22.2988 2.07031 22.3652 3.33789 22.4355 4.59961C22.5059 5.86133 22.5703 7.11719 22.6289 8.36719L23.5312 8.50195V9H20.666V8.50195L21.5449 8.36719L21.2812 1.7168L17.8711 9L14.3965 1.62891Z" fill="black"/>
</svg>
