<?xml version="1.0" standalone="no"?>
<!DOCTYPE svg PUBLIC "-//W3C//DTD SVG 20010904//EN"
 "http://www.w3.org/TR/2001/REC-SVG-20010904/DTD/svg10.dtd">
<svg version="1.0" xmlns="http://www.w3.org/2000/svg"
 width="1536.000000pt" height="1536.000000pt" viewBox="0 0 1536.000000 1536.000000"
 preserveAspectRatio="xMidYMid meet">
<metadata>
Created by potrace 1.14, written by Peter Selinger 2001-2017
</metadata>
<g transform="translate(0.000000,1536.000000) scale(0.100000,-0.100000)"
fill="#000000" stroke="none">
<path d="M603 10443 c-3 -7 -2 -16 1 -22 4 -5 2 -12 -2 -15 -5 -3 -6 -25 -2
-48 3 -24 3 -57 -1 -75 -3 -17 -3 -37 1 -44 4 -6 4 -23 0 -38 -13 -48 3 -68
62 -76 29 -4 60 -8 68 -10 21 -4 220 -36 250 -40 24 -3 80 -14 110 -20 8 -2
20 -4 27 -4 8 -1 10 -21 8 -68 -4 -63 -10 -180 -20 -358 -2 -38 -6 -117 -9
-175 -13 -212 -16 -267 -21 -365 -6 -100 -10 -174 -20 -360 -10 -173 -14 -247
-20 -349 -8 -155 -14 -273 -20 -366 -3 -47 -8 -130 -11 -185 -3 -55 -7 -131
-9 -170 -3 -38 -7 -119 -10 -180 -3 -60 -8 -139 -10 -175 -13 -232 -17 -293
-20 -355 -2 -38 -6 -119 -10 -180 -3 -60 -8 -148 -10 -195 -3 -47 -7 -130 -10
-185 -4 -55 -8 -134 -10 -175 -2 -41 -7 -120 -10 -175 -4 -55 -8 -138 -11
-185 -2 -47 -6 -123 -9 -170 -5 -78 -7 -124 -20 -350 -2 -41 -4 -87 -4 -101
-1 -14 -7 -26 -13 -26 -7 0 -29 -3 -48 -6 -56 -10 -392 -65 -429 -71 -19 -2
-37 -9 -40 -14 -3 -6 -6 -77 -5 -159 l1 -148 778 0 778 0 1 153 c1 85 -2 156
-7 159 -4 2 -17 6 -30 8 -53 10 -154 26 -179 30 -15 2 -71 11 -125 21 -54 9
-107 17 -118 19 -64 7 -64 7 -59 118 2 56 6 172 9 257 5 169 12 341 20 550 3
74 7 200 10 280 8 229 14 372 20 550 4 91 8 217 11 280 10 305 14 405 19 530
3 74 7 203 10 285 13 362 23 636 30 805 7 185 17 467 18 567 2 72 5 89 15 81
6 -6 12 -14 12 -18 0 -4 25 -61 56 -126 31 -66 69 -146 84 -179 15 -33 51
-109 80 -170 28 -60 64 -137 80 -170 15 -33 54 -114 85 -180 31 -66 69 -147
85 -180 15 -33 52 -109 80 -170 29 -60 67 -141 85 -180 18 -38 60 -128 94
-199 34 -70 61 -130 61 -131 0 -1 39 -83 86 -181 47 -99 87 -185 88 -192 1 -7
8 -18 14 -24 7 -7 12 -16 12 -20 0 -4 32 -74 70 -154 39 -81 70 -148 70 -149
0 -2 38 -82 85 -180 47 -97 85 -178 85 -180 0 -1 31 -68 70 -149 87 -183 114
-240 115 -246 1 -3 32 -68 69 -145 64 -131 88 -183 91 -195 0 -3 33 -72 73
-153 40 -81 72 -150 72 -151 0 -2 31 -68 68 -147 73 -152 102 -214 175 -369
24 -52 62 -133 84 -180 23 -47 49 -104 59 -127 10 -24 21 -43 24 -43 6 0 44
77 107 215 7 17 17 37 22 45 5 8 19 38 32 65 35 79 82 180 141 305 30 63 63
133 72 155 10 22 22 47 27 55 5 8 14 26 20 40 10 25 24 54 104 225 77 164 107
229 175 375 37 80 88 188 112 240 25 52 57 120 71 150 13 30 46 100 72 155 26
55 63 133 81 173 137 292 181 387 222 472 20 41 37 77 37 80 2 6 62 135 190
405 28 61 67 144 86 185 18 41 37 77 41 78 5 2 8 9 8 15 0 6 27 69 60 139 33
71 77 164 96 206 20 42 54 115 76 162 38 80 71 150 138 295 16 33 54 114 85
180 31 66 66 141 77 167 11 26 24 46 28 43 4 -3 8 -42 10 -87 1 -46 3 -119 5
-163 4 -101 15 -357 20 -500 3 -60 7 -173 11 -250 16 -396 26 -693 28 -782 0
-46 3 -83 6 -83 3 0 5 -42 6 -93 1 -85 8 -292 20 -547 2 -58 6 -161 9 -230 2
-69 7 -188 10 -265 3 -77 7 -194 10 -260 3 -66 7 -185 11 -265 9 -215 13 -347
19 -525 3 -88 7 -165 10 -172 2 -8 -19 -14 -63 -19 -37 -4 -69 -8 -72 -9 -3
-1 -30 -5 -60 -9 -30 -5 -64 -10 -75 -12 -11 -3 -40 -7 -65 -10 -25 -3 -52 -7
-60 -9 -8 -2 -35 -7 -60 -10 -25 -3 -54 -8 -65 -10 -11 -2 -26 -4 -32 -4 -10
-1 -13 -40 -13 -161 l0 -160 917 2 918 3 0 153 c1 84 -3 156 -7 158 -10 7 -33
11 -99 19 -30 3 -61 8 -69 10 -8 2 -35 7 -60 10 -25 3 -58 7 -75 10 -64 11
-92 15 -135 21 -25 3 -58 8 -75 10 -16 3 -36 5 -42 6 -7 1 -14 6 -14 12 -4 31
-20 362 -25 491 -2 61 -4 110 -5 110 0 0 -2 34 -4 75 -2 41 -6 129 -10 195 -4
66 -8 154 -10 195 -12 226 -17 312 -20 380 -2 41 -6 125 -10 185 -3 61 -8 155
-10 210 -3 55 -8 143 -11 195 -3 52 -7 129 -9 170 -3 41 -7 116 -9 165 -3 50
-8 133 -11 185 -2 52 -7 140 -10 195 -4 55 -8 132 -10 170 -2 39 -6 122 -10
185 -3 63 -8 153 -10 200 -5 90 -11 201 -19 365 -3 55 -8 147 -11 205 -3 58
-8 150 -11 205 -3 55 -8 138 -10 185 -2 47 -6 130 -8 185 -3 55 -7 151 -10
214 -3 62 -7 115 -9 117 -3 4 3 54 7 54 0 0 28 5 61 10 33 6 78 13 100 16 22
2 54 7 70 10 34 7 62 11 125 19 25 3 79 11 120 18 l75 12 0 160 0 160 -584 0
-584 0 -64 -133 c-35 -73 -63 -135 -63 -137 0 -1 -20 -45 -44 -96 -158 -338
-264 -569 -287 -626 -8 -18 -17 -33 -21 -33 -5 0 -8 -6 -8 -14 0 -7 -25 -67
-56 -132 -30 -65 -62 -135 -71 -154 -8 -19 -35 -75 -58 -125 -24 -49 -55 -119
-71 -155 -16 -36 -32 -66 -36 -68 -4 -2 -8 -10 -8 -18 0 -8 -4 -22 -10 -32
-28 -52 -138 -291 -143 -314 -4 -16 -12 -28 -17 -28 -6 0 -10 -6 -10 -13 0 -8
-16 -46 -35 -86 -19 -39 -35 -73 -35 -75 0 -2 -25 -57 -56 -122 -30 -66 -61
-132 -69 -149 -7 -16 -35 -77 -62 -135 -27 -58 -58 -126 -69 -152 -10 -27 -22
-48 -26 -48 -5 0 -8 -6 -8 -13 0 -7 -8 -31 -19 -53 -10 -21 -32 -68 -49 -104
-16 -36 -49 -105 -73 -155 -23 -49 -43 -92 -44 -95 -5 -15 -28 -65 -68 -150
-24 -52 -56 -120 -70 -150 -13 -30 -42 -91 -62 -135 -21 -44 -86 -186 -145
-315 -60 -129 -123 -266 -141 -305 l-33 -69 -35 74 c-19 41 -35 77 -36 80 -1
3 -15 34 -32 70 -16 36 -42 92 -57 125 -15 33 -36 77 -47 98 -10 22 -19 45
-19 53 0 8 -4 14 -10 14 -5 0 -10 8 -10 18 0 10 -4 22 -9 27 -5 6 -23 43 -40
82 -18 40 -54 121 -81 179 -28 58 -50 107 -50 110 0 2 -20 45 -45 94 -24 50
-45 92 -45 95 -1 7 -49 114 -82 185 -16 36 -43 92 -58 125 -15 33 -39 85 -53
115 -14 30 -39 84 -55 120 -57 127 -71 156 -112 245 -23 50 -49 106 -57 125
-9 19 -40 86 -69 149 -30 62 -54 115 -54 117 0 3 -16 40 -36 82 -44 92 -74
159 -144 312 -28 63 -67 147 -85 185 -18 39 -42 90 -53 115 -11 25 -37 81 -57
125 -69 150 -78 170 -80 175 0 3 -16 37 -34 75 -18 39 -45 95 -58 125 -38 85
-58 127 -105 230 -25 52 -53 113 -63 135 -10 22 -33 74 -53 115 -38 82 -65
142 -67 150 -2 5 -17 38 -90 195 l-33 70 -637 0 c-490 0 -639 -3 -642 -12z"/>
<path d="M8296 10450 c-1 -3 -2 -74 -2 -159 1 -129 3 -154 16 -156 8 -2 29 -5
45 -8 39 -7 282 -47 320 -53 75 -12 139 -24 142 -28 8 -7 7 -17 -13 -341 -3
-49 -7 -119 -9 -155 -5 -108 -15 -280 -20 -370 -3 -47 -7 -125 -10 -175 -2
-49 -7 -130 -10 -180 -3 -49 -7 -133 -10 -185 -3 -52 -7 -131 -10 -175 -9
-153 -17 -300 -20 -360 -1 -33 -5 -107 -9 -165 -3 -58 -9 -150 -12 -205 -3
-55 -7 -131 -9 -170 -2 -38 -7 -122 -10 -185 -3 -63 -8 -140 -10 -170 -2 -30
-7 -113 -10 -185 -4 -71 -8 -157 -10 -190 -2 -33 -6 -105 -9 -160 -3 -55 -8
-140 -11 -190 -2 -49 -7 -135 -11 -190 -6 -115 -10 -174 -19 -340 -3 -66 -8
-154 -11 -195 -2 -41 -6 -124 -9 -184 -9 -172 -14 -238 -19 -243 -3 -3 -1 -16
4 -29 5 -13 5 -26 1 -28 -5 -3 -7 -19 -6 -36 3 -32 -1 -34 -70 -46 -22 -4 -47
-8 -57 -10 -9 -1 -38 -6 -65 -10 -26 -3 -57 -8 -68 -10 -11 -3 -36 -7 -55 -10
-19 -3 -48 -8 -65 -11 -16 -3 -43 -7 -60 -9 -16 -2 -39 -6 -50 -8 -11 -3 -26
-5 -32 -5 -10 -1 -13 -40 -13 -161 l0 -160 778 2 777 3 1 157 1 157 -26 5
c-14 3 -46 8 -71 11 -25 3 -52 8 -60 10 -8 3 -33 7 -55 10 -22 2 -53 7 -70 10
-64 12 -81 15 -125 21 -86 11 -121 24 -116 42 4 15 12 194 21 497 3 96 12 329
20 535 3 69 7 195 10 280 3 85 8 216 11 290 3 74 7 189 9 255 7 192 15 421 20
545 2 63 7 187 10 275 3 88 8 210 10 270 3 61 7 180 10 265 2 85 7 223 11 305
3 83 7 197 9 255 14 404 17 495 21 499 3 4 30 -51 154 -314 29 -60 69 -146 90
-190 21 -44 73 -154 115 -245 70 -149 126 -267 218 -460 17 -36 32 -67 32 -70
1 -3 20 -44 42 -91 39 -80 58 -120 163 -344 21 -44 61 -129 90 -190 29 -60 66
-139 82 -175 16 -36 47 -101 68 -145 63 -132 136 -285 173 -365 34 -73 81
-173 157 -335 37 -79 119 -250 188 -395 20 -41 36 -77 37 -80 1 -5 22 -49 115
-245 23 -49 67 -142 96 -205 30 -63 65 -137 78 -165 46 -94 146 -308 146 -310
0 -2 38 -81 83 -177 46 -95 86 -179 88 -186 3 -9 9 -6 16 10 37 74 163 341
163 344 0 3 20 46 44 97 88 183 129 272 131 277 0 3 13 30 27 60 35 75 104
221 140 300 17 36 54 115 83 175 29 61 63 133 75 160 13 28 42 91 65 140 74
157 112 238 145 310 18 39 55 117 83 175 27 58 51 110 53 115 1 6 34 78 74
160 75 157 108 227 158 335 16 36 52 112 79 170 28 58 60 128 73 155 12 28 37
81 56 118 19 37 34 73 34 79 0 6 6 19 13 27 8 9 23 39 35 66 19 46 47 108 169
365 25 52 56 120 70 150 14 30 46 98 70 150 77 163 83 176 83 187 0 6 5 13 10
15 6 2 12 14 15 27 2 12 8 28 13 35 5 6 35 67 67 136 31 69 77 166 101 215 43
90 43 90 45 50 3 -90 10 -245 24 -580 2 -55 7 -165 9 -245 3 -80 8 -203 11
-274 4 -71 8 -185 10 -255 2 -69 4 -126 5 -126 1 0 3 -47 5 -105 4 -122 14
-369 20 -520 4 -98 12 -302 20 -500 6 -175 16 -428 21 -525 2 -55 6 -158 9
-230 2 -71 7 -186 10 -255 22 -540 23 -590 16 -594 -4 -3 -27 -7 -51 -11 -25
-3 -58 -9 -75 -11 -16 -3 -43 -7 -60 -10 -39 -5 -89 -12 -200 -29 -49 -8 -105
-16 -123 -19 -19 -2 -37 -7 -40 -11 -4 -3 -7 -76 -7 -161 l0 -154 918 0 c727
0 917 3 917 13 2 40 -1 302 -4 304 -1 1 -20 5 -42 8 -21 4 -50 8 -63 10 -13 2
-45 7 -70 11 -25 4 -55 8 -66 10 -11 2 -40 7 -65 10 -25 3 -56 7 -70 10 -14 2
-45 7 -70 10 -115 13 -130 20 -131 63 -3 126 -11 293 -25 536 -2 50 -7 135 -9
190 -9 206 -15 313 -20 400 -3 50 -8 140 -11 200 -3 61 -7 151 -10 200 -2 50
-6 128 -8 175 -5 85 -12 228 -21 370 -9 147 -16 276 -20 360 -4 96 -13 256
-21 376 -3 45 -7 123 -9 175 -2 52 -6 130 -9 174 -3 44 -8 139 -11 210 -3 72
-8 157 -10 190 -3 33 -7 112 -9 175 -3 63 -8 153 -10 200 -13 220 -21 364 -31
600 -3 52 -6 134 -9 183 -2 48 -1 87 2 88 4 0 16 2 27 4 11 2 43 7 70 11 28 4
52 8 55 9 3 1 34 5 70 10 36 5 67 9 70 10 3 1 30 5 60 10 30 5 57 9 60 10 3 1
35 5 72 9 50 5 67 12 70 24 2 9 3 82 3 162 l-1 145 -586 0 -587 0 -40 -85
c-22 -47 -59 -125 -82 -175 -23 -49 -57 -124 -76 -165 -19 -41 -35 -77 -35
-80 0 -3 -5 -14 -11 -25 -6 -11 -10 -23 -9 -27 1 -5 -3 -8 -8 -8 -6 0 -10 -5
-10 -10 0 -6 -16 -45 -36 -88 -20 -42 -44 -95 -54 -117 -10 -22 -39 -85 -65
-140 -26 -55 -55 -118 -65 -140 -10 -22 -34 -74 -53 -115 -19 -41 -56 -119
-81 -173 -25 -54 -46 -99 -46 -101 0 -2 -22 -51 -50 -110 -27 -58 -50 -108
-50 -111 -1 -2 -18 -37 -38 -77 -19 -40 -36 -75 -37 -78 -4 -12 -27 -63 -74
-163 -28 -60 -51 -110 -51 -112 0 -4 -118 -255 -130 -277 -6 -10 -10 -23 -10
-30 0 -6 -6 -19 -13 -27 -8 -9 -21 -34 -30 -56 -8 -22 -36 -84 -61 -138 -25
-53 -46 -101 -47 -105 -2 -4 -15 -33 -31 -64 -15 -31 -28 -62 -28 -67 0 -6 -4
-11 -10 -11 -5 0 -9 -3 -8 -7 2 -11 -18 -55 -125 -283 -17 -36 -31 -67 -32
-70 -1 -3 -15 -34 -32 -70 -17 -36 -42 -90 -55 -120 -14 -30 -56 -120 -93
-200 -85 -182 -108 -233 -185 -400 -34 -74 -75 -162 -90 -195 -15 -33 -39 -84
-52 -114 -14 -29 -28 -49 -31 -44 -10 16 -208 447 -211 458 -1 6 -21 49 -44
97 -23 48 -77 165 -121 260 -76 166 -114 249 -169 368 -14 30 -26 57 -27 60
-1 3 -11 25 -22 50 -12 25 -34 74 -51 110 -16 36 -44 97 -62 135 -39 85 -73
158 -75 165 -1 3 -13 30 -27 60 -50 107 -91 196 -115 250 -14 30 -42 91 -63
135 -62 132 -102 219 -105 230 -1 6 -20 48 -42 95 -22 47 -78 166 -123 265
-109 237 -147 322 -170 370 -87 190 -151 328 -167 365 -8 19 -22 49 -30 65 -8
17 -34 73 -57 125 -24 52 -56 122 -71 155 -15 33 -36 78 -46 100 -10 22 -45
98 -78 169 -34 70 -61 131 -61 135 0 3 -17 40 -38 81 l-38 75 -638 0 c-351 0
-639 -2 -640 -5z"/>
</g>
</svg>
